<svg xmlns:dc="http://purl.org/dc/elements/1.1/" xmlns:cc="http://creativecommons.org/ns#" xmlns:rdf="http://www.w3.org/1999/02/22-rdf-syntax-ns#" xmlns:svg="http://www.w3.org/2000/svg" xmlns="http://www.w3.org/2000/svg" width="66" height="50" viewBox="0 0 66 50" version="1.1">
    <g>
    <g>
        <path style="fill:#434345;stroke-width:0.99977249" d="m 11.468451,43.747968 a 0.68384438,0.68384438 0 0 0 -0.499886,-0.199955 l -10.08370547,0.006 a 0.66684824,0.66684824 0 0 0 -0.49988624,0.204953 0.69984074,0.69984074 0 0 0 0,0.999773 0.67084733,0.67084733 0 0 0 0.49988624,0.204953 l 4.80790587,0.014 a 3.3212442,3.3212442 0 0 0 -0.3479208,0.873801 3.5991809,3.5991809 0 0 0 -0.1179732,0.915792 l 0.01,2.532423 a 0.67284688,0.67284688 0 0 0 0.2069529,0.499887 0.66384893,0.66384893 0 0 0 0.4998863,0.199954 0.69984074,0.69984074 0 0 0 0.6998407,-0.705839 l -0.01,-2.531424 a 3.0073156,3.0073156 0 0 1 0.055987,-0.554874 1.6646212,1.6646212 0 0 1 0.2189502,-0.573869 1.3426944,1.3426944 0 0 1 0.4458985,-0.447898 1.4566685,1.4566685 0 0 1 0.7238353,-0.214952 l 2.9453297,-0.008 a 0.74283095,0.74283095 0 0 0 0.454897,-0.228948 0.69984074,0.69984074 0 0 0 -0.019,-0.975778"></path>
        <path style="fill:#434345;stroke-width:0.99977249" d="m 41.286665,45.643536 a 3.5991809,3.5991809 0 0 0 -0.506884,-1.012769 2.9093379,2.9093379 0 0 0 -0.799818,-0.752829 2.1545097,2.1545097 0 0 0 -1.070757,-0.330925 h -6.682479 a 2.2154958,2.2154958 0 0 0 -1.131742,0.292934 2.9283336,2.9283336 0 0 0 -0.846808,0.755828 3.4182221,3.4182221 0 0 0 -0.534878,1.025766 3.5231982,3.5231982 0 0 0 -0.01,2.219495 3.5821848,3.5821848 0 0 0 0.499887,1.01077 2.9753229,2.9753229 0 0 0 0.799817,0.756828 2.1185179,2.1185179 0 0 0 1.072756,0.327925 H 33.78737 A 0.72183573,0.72183573 0 0 0 34.493209,49.219722 0.67084733,0.67084733 0 0 0 34.287256,48.726835 0.70983846,0.70983846 0 0 0 33.78737,48.52688 h -1.261713 a 1.6496246,1.6496246 0 0 1 -0.825812,-0.184958 1.5056574,1.5056574 0 0 1 -0.74783,-1.025766 2.4994312,2.4994312 0 0 1 0,-1.157737 1.5876387,1.5876387 0 0 1 0.247944,-0.577868 1.5606448,1.5606448 0 0 1 0.499886,-0.447898 1.6366275,1.6366275 0 0 1 0.828811,-0.182959 h 5.920653 a 1.6426262,1.6426262 0 0 1 0.822813,0.183958 1.4996587,1.4996587 0 0 1 0.499886,0.443899 1.6226307,1.6226307 0 0 1 0.247943,0.579868 2.6993857,2.6993857 0 0 1 0.06699,0.579868 2.8993402,2.8993402 0 0 1 -0.06699,0.577869 1.5766412,1.5766412 0 0 1 -0.247943,0.578868 1.4836624,1.4836624 0 0 1 -0.499886,0.446898 1.678618,1.678618 0 0 1 -0.824813,0.184958 H 37.347562 A 0.49988624,0.49988624 0 0 1 37.04763,48.346921 0.54387623,0.54387623 0 0 1 36.922658,47.984004 v -0.559873 a 0.66584847,0.66584847 0 0 0 -0.210952,-0.499886 0.68784347,0.68784347 0 0 0 -0.492887,-0.204953 0.69984074,0.69984074 0 0 0 -0.699841,0.69984 v 0.717837 a 1.8465798,1.8465798 0 0 0 0.13197,0.699841 1.6146326,1.6146326 0 0 0 0.373915,0.57087 1.7246075,1.7246075 0 0 0 0.556873,0.379913 1.6506244,1.6506244 0 0 0 0.699841,0.138969 h 1.478663 a 2.1545097,2.1545097 0 0 0 1.129743,-0.292934 2.8923418,2.8923418 0 0 0 0.849807,-0.753828 3.4992037,3.4992037 0 0 0 0.535878,-1.024767 3.7291514,3.7291514 0 0 0 0.181958,-1.121745 3.6721643,3.6721643 0 0 0 -0.17496,-1.099749"></path>
        <path style="fill:#434345;stroke-width:0.99977249" d="m 52.666076,49.046762 a 0.89279682,0.89279682 0 0 0 -0.141968,-0.21995 l -3.454214,-4.598954 a 1.6256301,1.6256301 0 0 0 -0.623858,-0.508884 1.8565775,1.8565775 0 0 0 -1.654624,0.02499 1.880572,1.880572 0 0 0 -0.637854,0.532878 l -3.425221,4.622948 a 0.59986349,0.59986349 0 0 0 -0.139968,0.411907 0.67684597,0.67684597 0 0 0 1.207725,0.420904 l 3.310247,-4.408997 a 1.66962,1.66962 0 0 1 0.232947,-0.249943 0.45689602,0.45689602 0 0 1 0.299932,-0.134969 0.45089739,0.45089739 0 0 1 0.30493,0.132969 3.1412851,3.1412851 0 0 1 0.247944,0.247944 l 3.313246,4.398999 a 0.63385575,0.63385575 0 0 0 0.538877,0.266939 0.67984529,0.67984529 0 0 0 0.677846,-0.681845 0.62685734,0.62685734 0 0 0 -0.05899,-0.26094"></path>
        <path style="fill:#434345;stroke-width:0.99977249" d="m 65.803086,44.250853 a 0.69984074,0.69984074 0 0 0 -0.699841,-0.69984 0.69284233,0.69284233 0 0 0 -0.275937,0.05399 h -0.01 a 0.66284915,0.66284915 0 0 0 -0.106975,0.05699 0.75382845,0.75382845 0 0 0 -0.112975,0.09198 0.69284233,0.69284233 0 0 0 -0.209952,0.499887 v 1.280708 0.52988 h -8.65503 V 44.25286 a 0.69984074,0.69984074 0 0 0 -0.209952,-0.499886 0.6758462,0.6758462 0 0 0 -0.499887,-0.199955 0.69984074,0.69984074 0 0 0 -0.709838,0.699841 v 5.034854 a 0.68984301,0.68984301 0 0 0 0.204953,0.499886 0.67884551,0.67884551 0 0 0 0.499886,0.206953 0.66684824,0.66684824 0 0 0 0.499887,-0.199954 0.6938421,0.6938421 0 0 0 0.21795,-0.499887 v -1.810588 h 8.65703 v 1.783595 a 0.71083823,0.71083823 0 0 0 0.06199,0.291933 c 0.01,0.013 0.014,0.02499 0.02,0.03699 a 0.65185166,0.65185166 0 0 0 0.03999,0.06998 0.80981571,0.80981571 0 0 0 0.09998,0.126971 0.66684824,0.66684824 0 0 0 0.499887,0.199954 0.67984529,0.67984529 0 0 0 0.499886,-0.206953 0.68984301,0.68984301 0 0 0 0.204953,-0.499886 v -5.034854 z"></path>
        <path style="fill:#434345;stroke-width:0.99977249" d="m 27.632772,43.752967 a 0.67684597,0.67684597 0 0 0 -0.499886,-0.199955 0.69984074,0.69984074 0 0 0 -0.708838,0.699841 v 5.034854 a 0.68984301,0.68984301 0 0 0 0.204953,0.499886 0.67984529,0.67984529 0 0 0 0.499886,0.206953 0.66684824,0.66684824 0 0 0 0.499886,-0.199954 0.6938421,0.6938421 0 0 0 0.216951,-0.499887 v -5.032854 a 0.6938421,0.6938421 0 0 0 -0.209952,-0.499886"></path>
        <path style="fill:#434345;stroke-width:0.99977249" d="m 24.638454,44.250853 a 0.69984074,0.69984074 0 0 0 -0.699841,-0.69984 0.69184256,0.69184256 0 0 0 -0.275937,0.05399 h -0.01 a 0.66284915,0.66284915 0 0 0 -0.106975,0.05699 0.76682549,0.76682549 0 0 0 -0.112975,0.09198 0.69284233,0.69284233 0 0 0 -0.208952,0.499887 v 1.280708 0.52988 h -8.65603 V 44.25286 a 0.69284233,0.69284233 0 0 0 -0.209953,-0.499886 0.6758462,0.6758462 0 0 0 -0.499886,-0.199955 0.69984074,0.69984074 0 0 0 -0.709838,0.699841 v 5.034854 a 0.69084278,0.69084278 0 0 0 0.205953,0.499886 0.67984529,0.67984529 0 0 0 0.499886,0.206953 0.66784802,0.66784802 0 0 0 0.499886,-0.199954 0.69184256,0.69184256 0 0 0 0.216951,-0.499887 v -1.810588 h 8.65803 v 1.783595 a 0.69984074,0.69984074 0 0 0 0.06199,0.291933 c 0.01,0.013 0.013,0.02499 0.02,0.03699 a 0.69984074,0.69984074 0 0 0 0.03899,0.06998 0.82581207,0.82581207 0 0 0 0.09998,0.126971 0.66784802,0.66784802 0 0 0 0.499887,0.199954 0.68084506,0.68084506 0 0 0 0.499886,-0.206953 0.69184256,0.69184256 0 0 0 0.204953,-0.499886 v -5.034854 z"></path>
    </g>
    <g>
        <path style="fill:#434345;stroke-width:0.99977249" d="m 56.582184,5.0947641 -1.072755,0.009 a 2.2995637,2.2995637 0 1 0 0.03999,4.5989534 l 1.070757,-0.008 A 2.2995552,2.2995552 0 1 0 56.582186,5.095764"></path>
        <path style="fill:#434345;stroke-width:0.99977249" d="M 65.114243,5.7486153 A 2.2044983,2.2044983 0 0 0 63.480615,5.0927645 l -1.071757,0.009 a 2.3054753,2.3054753 0 0 0 -1.599636,3.9431026 2.2294926,2.2294926 0 0 0 1.639627,0.6588501 l 1.070757,-0.01 a 2.3054753,2.3054753 0 0 0 1.593637,-3.946102"></path>
        <path style="fill:#434345;stroke-width:0.99977249" d="m 65.820082,15.397419 a 2.2264933,2.2264933 0 0 0 -0.689843,-1.630628 2.02154,2.02154 0 0 0 -1.550647,-0.66185 2.2324919,2.2324919 0 0 0 -1.630629,0.688843 2.1305152,2.1305152 0 0 0 -0.534878,1.643626 l 0.03299,5.208815 v 0 l -0.03899,6.781457 c 0.03699,4.033082 -1.972551,6.41554 -6.274572,6.450532 l -2.299477,-0.017 a 14.246758,14.246758 0 0 1 -4.862893,4.498976 h 7.375322 l 1.041763,-0.08098 c 5.963642,-0.555873 9.478842,-4.509973 9.425854,-10.674571 l 0.011,-6.998407 -0.018,-2.138513 z"></path>
        <path style="fill:#434345;stroke-width:0.99977249" d="M 61.669027,0.65677403 A 2.2044983,2.2044983 0 0 0 60.035399,9.2328752e-4 L 58.963642,0.00992124 a 2.2904788,2.2904788 0 0 0 -2.28248,2.32147166 2.2914785,2.2914785 0 0 0 2.322471,2.2814808 l 1.070757,-0.01 a 2.3054753,2.3054753 0 0 0 1.593637,-3.94610197"></path>
    </g>
    <g>
        <path style="fill:#33b3e7;stroke-width:0.99977249" d="m 44.194004,13.168927 a 1.8145871,1.8145871 0 0 0 -2.268484,1.761599 v 3.128288 a 1.7266071,1.7266071 0 0 0 1.14174,1.615632 6.2305821,6.2305821 0 0 1 -2.158509,12.075252 h -0.05199 a 6.2305821,6.2305821 0 0 1 -2.10852,-12.074252 1.7276068,1.7276068 0 0 0 1.14174,-1.615632 v -3.128288 a 1.8145871,1.8145871 0 0 0 -2.268484,-1.7616 12.782091,12.782091 0 0 0 -9.497838,12.35019 c 0,0.199954 0.01,0.399909 0.015,0.599863 a 12.779092,12.779092 0 0 0 12.715107,12.177229 h 0.05199 a 12.780092,12.780092 0 0 0 3.285252,-25.131281"></path>
        <path style="fill:#434345;stroke-width:0.99977249" d="m 37.965421,5.0947641 -1.072756,0.009 a 2.2995637,2.2995637 0 1 0 0.03999,4.5989534 l 1.070756,-0.008 A 2.2995594,2.2995594 0 1 0 37.964421,5.095764"></path>
        <path style="fill:#434345;stroke-width:0.99977249" d="M 46.497479,5.7486153 A 2.2044983,2.2044983 0 0 0 44.863851,5.0927645 l -1.071756,0.009 a 2.2914785,2.2914785 0 0 0 -2.282481,2.3214717 2.2924783,2.2924783 0 0 0 2.322472,2.2814808 l 1.070756,-0.01 A 2.3054753,2.3054753 0 0 0 46.49648,5.748615"></path>
    </g>
    <g>
        <path style="fill:#434345;stroke-width:0.99977249" d="M 10.443684,33.89321 C 6.5715654,33.9262 5.0809046,29.385236 5.0539108,26.15897 5.0259168,22.825729 5.9986958,17.333979 10.300717,17.294988 l 5.44876,-0.04699 0.012,16.636214 z M 28.87349,33.9472 V 33.88421 H 20.337433 V 13.105941 H 10.105761 C 4.0281442,13.157929 0.19301697,17.434956 0.26500059,26.20296 0.34598216,35.34388 6.177655,38.400185 10.322712,38.363193 l 23.467659,0.008 A 14.217764,14.217764 0 0 1 28.87349,33.949198"></path>
        <path style="fill:#434345;stroke-width:0.99977249" d="m 10.995559,5.0947641 -1.0727563,0.009 a 2.2995637,2.2995637 0 1 0 0.039991,4.5989534 l 1.0707563,-0.008 A 2.2995594,2.2995594 0 1 0 10.99456,5.095764"></path>
        <path style="fill:#434345;stroke-width:0.99977249" d="M 19.527617,5.7486153 A 2.2054981,2.2054981 0 0 0 17.893989,5.0927645 l -1.071756,0.009 a 2.3054753,2.3054753 0 0 0 -1.599636,3.9431026 2.2294926,2.2294926 0 0 0 1.639627,0.6588501 l 1.070756,-0.01 a 2.3054753,2.3054753 0 0 0 1.593637,-3.946102"></path>
    </g>
    </g>
</svg>